<?xml version="1.0" encoding="UTF-8" standalone="no"?>
<!DOCTYPE svg PUBLIC "-//W3C//DTD SVG 1.1//EN"
 "http://www.w3.org/Graphics/SVG/1.1/DTD/svg11.dtd">
<!-- Generated by graphviz version 2.44.0 (20200408.0750)
 -->
<!-- Title: dependency&#45;cruiser output Pages: 1 -->
<svg width="401pt" height="265pt"
 viewBox="0.00 0.00 401.50 265.00" xmlns="http://www.w3.org/2000/svg" xmlns:xlink="http://www.w3.org/1999/xlink">
<g id="graph0" class="graph" transform="scale(1 1) rotate(0) translate(4 261)">
<title>dependency&#45;cruiser output</title>
<polygon fill="white" stroke="transparent" points="-4,4 -4,-261 397.5,-261 397.5,4 -4,4"/>
<g id="clust1" class="cluster">
<title>cluster_client</title>
<path fill="#ffffff" stroke="black" stroke-width="2" d="M20,-8C20,-8 373.5,-8 373.5,-8 379.5,-8 385.5,-14 385.5,-20 385.5,-20 385.5,-237 385.5,-237 385.5,-243 379.5,-249 373.5,-249 373.5,-249 20,-249 20,-249 14,-249 8,-243 8,-237 8,-237 8,-20 8,-20 8,-14 14,-8 20,-8"/>
<text text-anchor="middle" x="196.75" y="-236.9" font-family="Helvetica,sans-Serif" font-weight="bold" font-size="9.00">client</text>
</g>
<g id="clust2" class="cluster">
<title>cluster_client/src</title>
<path fill="#ffffff" stroke="black" stroke-width="2" d="M28,-16C28,-16 365.5,-16 365.5,-16 371.5,-16 377.5,-22 377.5,-28 377.5,-28 377.5,-184 377.5,-184 377.5,-190 371.5,-196 365.5,-196 365.5,-196 28,-196 28,-196 22,-196 16,-190 16,-184 16,-184 16,-28 16,-28 16,-22 22,-16 28,-16"/>
<text text-anchor="middle" x="196.75" y="-183.9" font-family="Helvetica,sans-Serif" font-weight="bold" font-size="9.00">src</text>
</g>
<g id="clust3" class="cluster">
<title>cluster_client/src/components</title>
<path fill="#ffffff" stroke="black" stroke-width="2" d="M298.25,-24C298.25,-24 355.25,-24 355.25,-24 361.25,-24 367.25,-30 367.25,-36 367.25,-36 367.25,-65 367.25,-65 367.25,-71 361.25,-77 355.25,-77 355.25,-77 298.25,-77 298.25,-77 292.25,-77 286.25,-71 286.25,-65 286.25,-65 286.25,-36 286.25,-36 286.25,-30 292.25,-24 298.25,-24"/>
<text text-anchor="middle" x="326.75" y="-64.9" font-family="Helvetica,sans-Serif" font-weight="bold" font-size="9.00">components</text>
</g>
<g id="clust4" class="cluster">
<title>cluster_client/src/handlers</title>
<path fill="#ffffff" stroke="black" stroke-width="2" d="M205,-85C205,-85 264,-85 264,-85 270,-85 276,-91 276,-97 276,-97 276,-157 276,-157 276,-163 270,-169 264,-169 264,-169 205,-169 205,-169 199,-169 193,-163 193,-157 193,-157 193,-97 193,-97 193,-91 199,-85 205,-85"/>
<text text-anchor="middle" x="234.5" y="-156.9" font-family="Helvetica,sans-Serif" font-weight="bold" font-size="9.00">handlers</text>
</g>
<g id="clust5" class="cluster">
<title>cluster_client/src/init</title>
<path fill="#ffffff" stroke="black" stroke-width="2" d="M36,-100C36,-100 82,-100 82,-100 88,-100 94,-106 94,-112 94,-112 94,-141 94,-141 94,-147 88,-153 82,-153 82,-153 36,-153 36,-153 30,-153 24,-147 24,-141 24,-141 24,-112 24,-112 24,-106 30,-100 36,-100"/>
<text text-anchor="middle" x="59" y="-140.9" font-family="Helvetica,sans-Serif" font-weight="bold" font-size="9.00">init</text>
</g>
<g id="clust6" class="cluster">
<title>cluster_client/src/listeners</title>
<path fill="#ffffff" stroke="black" stroke-width="2" d="M114,-85C114,-85 173,-85 173,-85 179,-85 185,-91 185,-97 185,-97 185,-157 185,-157 185,-163 179,-169 173,-169 173,-169 114,-169 114,-169 108,-169 102,-163 102,-157 102,-157 102,-97 102,-97 102,-91 108,-85 114,-85"/>
<text text-anchor="middle" x="143.5" y="-156.9" font-family="Helvetica,sans-Serif" font-weight="bold" font-size="9.00">listeners</text>
</g>
<g id="clust7" class="cluster">
<title>cluster_client/src/logic</title>
<path fill="#ffffff" stroke="black" stroke-width="2" d="M296,-85C296,-85 357.5,-85 357.5,-85 363.5,-85 369.5,-91 369.5,-97 369.5,-97 369.5,-157 369.5,-157 369.5,-163 363.5,-169 357.5,-169 357.5,-169 296,-169 296,-169 290,-169 284,-163 284,-157 284,-157 284,-97 284,-97 284,-91 290,-85 296,-85"/>
<text text-anchor="middle" x="326.75" y="-156.9" font-family="Helvetica,sans-Serif" font-weight="bold" font-size="9.00">logic</text>
</g>
<!-- client/data.js -->
<g id="node1" class="node">
<title>client/data.js</title>
<g id="a_node1"><a xlink:href="../client/data.js" xlink:title="data.js">
<path fill="#ffffcc" stroke="black" d="M347.55,-222.3C347.55,-222.3 305.95,-222.3 305.95,-222.3 302.85,-222.3 299.75,-219.2 299.75,-216.1 299.75,-216.1 299.75,-209.9 299.75,-209.9 299.75,-206.8 302.85,-203.7 305.95,-203.7 305.95,-203.7 347.55,-203.7 347.55,-203.7 350.65,-203.7 353.75,-206.8 353.75,-209.9 353.75,-209.9 353.75,-216.1 353.75,-216.1 353.75,-219.2 350.65,-222.3 347.55,-222.3"/>
<text text-anchor="middle" x="326.75" y="-210.3" font-family="Helvetica,sans-Serif" font-size="9.00">data.js</text>
</a>
</g>
</g>
<!-- client/src/components/render&#45;list.js -->
<g id="node2" class="node">
<title>client/src/components/render&#45;list.js</title>
<g id="a_node2"><a xlink:href="../client/src/components/render-list.js" xlink:title="render&#45;list.js">
<path fill="#ffffcc" stroke="black" d="M353.04,-50.3C353.04,-50.3 300.46,-50.3 300.46,-50.3 297.36,-50.3 294.26,-47.2 294.26,-44.1 294.26,-44.1 294.26,-37.9 294.26,-37.9 294.26,-34.8 297.36,-31.7 300.46,-31.7 300.46,-31.7 353.04,-31.7 353.04,-31.7 356.14,-31.7 359.24,-34.8 359.24,-37.9 359.24,-37.9 359.24,-44.1 359.24,-44.1 359.24,-47.2 356.14,-50.3 353.04,-50.3"/>
<text text-anchor="middle" x="326.75" y="-38.3" font-family="Helvetica,sans-Serif" font-size="9.00">render&#45;list.js</text>
</a>
</g>
</g>
<!-- client/src/handlers/input&#45;word.js -->
<g id="node3" class="node">
<title>client/src/handlers/input&#45;word.js</title>
<g id="a_node3"><a xlink:href="../client/src/handlers/input-word.js" xlink:title="input&#45;word.js">
<path fill="#ffffcc" stroke="black" d="M261.8,-142.3C261.8,-142.3 207.2,-142.3 207.2,-142.3 204.1,-142.3 201,-139.2 201,-136.1 201,-136.1 201,-129.9 201,-129.9 201,-126.8 204.1,-123.7 207.2,-123.7 207.2,-123.7 261.8,-123.7 261.8,-123.7 264.9,-123.7 268,-126.8 268,-129.9 268,-129.9 268,-136.1 268,-136.1 268,-139.2 264.9,-142.3 261.8,-142.3"/>
<text text-anchor="middle" x="234.5" y="-130.3" font-family="Helvetica,sans-Serif" font-size="9.00">input&#45;word.js</text>
</a>
</g>
</g>
<!-- client/src/handlers/input&#45;word.js&#45;&gt;client/data.js -->
<g id="edge1" class="edge">
<title>client/src/handlers/input&#45;word.js&#45;&gt;client/data.js</title>
<path fill="none" stroke="#000000" stroke-width="2" stroke-opacity="0.200000" d="M268.13,-140.22C271.02,-141.79 273.72,-143.69 276,-146 284.5,-154.6 277.72,-161.67 284,-172 290.3,-182.35 299.79,-191.95 308.13,-199.26"/>
<polygon fill="#000000" fill-opacity="0.200000" stroke="#000000" stroke-width="2" stroke-opacity="0.200000" points="307.2,-201.23 313.13,-203.5 309.91,-198.02 307.2,-201.23"/>
</g>
<!-- client/src/handlers/input&#45;word.js&#45;&gt;client/src/components/render&#45;list.js -->
<g id="edge2" class="edge">
<title>client/src/handlers/input&#45;word.js&#45;&gt;client/src/components/render&#45;list.js</title>
<path fill="none" stroke="#000000" stroke-width="2" stroke-opacity="0.200000" d="M267.98,-123.69C270.98,-121.84 273.74,-119.64 276,-117 286.4,-104.9 276.22,-95.93 284,-82 289.91,-71.42 299.37,-61.81 307.8,-54.55"/>
<polygon fill="#000000" fill-opacity="0.200000" stroke="#000000" stroke-width="2" stroke-opacity="0.200000" points="309.59,-55.79 312.87,-50.34 306.91,-52.56 309.59,-55.79"/>
</g>
<!-- client/src/logic/is&#45;word.js -->
<g id="node4" class="node">
<title>client/src/logic/is&#45;word.js</title>
<g id="a_node4"><a xlink:href="../client/src/logic/is-word.js" xlink:title="is&#45;word.js">
<path fill="#ffffcc" stroke="black" d="M347.55,-142.3C347.55,-142.3 305.95,-142.3 305.95,-142.3 302.85,-142.3 299.75,-139.2 299.75,-136.1 299.75,-136.1 299.75,-129.9 299.75,-129.9 299.75,-126.8 302.85,-123.7 305.95,-123.7 305.95,-123.7 347.55,-123.7 347.55,-123.7 350.65,-123.7 353.75,-126.8 353.75,-129.9 353.75,-129.9 353.75,-136.1 353.75,-136.1 353.75,-139.2 350.65,-142.3 347.55,-142.3"/>
<text text-anchor="middle" x="326.75" y="-130.3" font-family="Helvetica,sans-Serif" font-size="9.00">is&#45;word.js</text>
</a>
</g>
</g>
<!-- client/src/handlers/input&#45;word.js&#45;&gt;client/src/logic/is&#45;word.js -->
<g id="edge3" class="edge">
<title>client/src/handlers/input&#45;word.js&#45;&gt;client/src/logic/is&#45;word.js</title>
<path fill="none" stroke="#000000" stroke-width="2" stroke-opacity="0.200000" d="M268.08,-133C276.37,-133 285.27,-133 293.54,-133"/>
<polygon fill="#000000" fill-opacity="0.200000" stroke="#000000" stroke-width="2" stroke-opacity="0.200000" points="293.72,-135.1 299.72,-133 293.72,-130.9 293.72,-135.1"/>
</g>
<!-- client/src/logic/sort&#45;strings.js -->
<g id="node5" class="node">
<title>client/src/logic/sort&#45;strings.js</title>
<g id="a_node5"><a xlink:href="../client/src/logic/sort-strings.js" xlink:title="sort&#45;strings.js">
<path fill="#ffffcc" stroke="black" d="M355.55,-111.3C355.55,-111.3 297.95,-111.3 297.95,-111.3 294.85,-111.3 291.75,-108.2 291.75,-105.1 291.75,-105.1 291.75,-98.9 291.75,-98.9 291.75,-95.8 294.85,-92.7 297.95,-92.7 297.95,-92.7 355.55,-92.7 355.55,-92.7 358.65,-92.7 361.75,-95.8 361.75,-98.9 361.75,-98.9 361.75,-105.1 361.75,-105.1 361.75,-108.2 358.65,-111.3 355.55,-111.3"/>
<text text-anchor="middle" x="326.75" y="-99.3" font-family="Helvetica,sans-Serif" font-size="9.00">sort&#45;strings.js</text>
</a>
</g>
</g>
<!-- client/src/handlers/input&#45;word.js&#45;&gt;client/src/logic/sort&#45;strings.js -->
<g id="edge4" class="edge">
<title>client/src/handlers/input&#45;word.js&#45;&gt;client/src/logic/sort&#45;strings.js</title>
<path fill="none" stroke="#000000" stroke-width="2" stroke-opacity="0.200000" d="M263.07,-123.53C272.43,-120.32 282.98,-116.69 292.72,-113.35"/>
<polygon fill="#000000" fill-opacity="0.200000" stroke="#000000" stroke-width="2" stroke-opacity="0.200000" points="293.67,-115.24 298.66,-111.3 292.3,-111.27 293.67,-115.24"/>
</g>
<!-- client/src/handlers/sort&#45;words.js -->
<g id="node6" class="node">
<title>client/src/handlers/sort&#45;words.js</title>
<g id="a_node6"><a xlink:href="../client/src/handlers/sort-words.js" xlink:title="sort&#45;words.js">
<path fill="#ffffcc" stroke="black" d="M261.8,-111.3C261.8,-111.3 207.21,-111.3 207.21,-111.3 204.11,-111.3 201.01,-108.2 201.01,-105.1 201.01,-105.1 201.01,-98.9 201.01,-98.9 201.01,-95.8 204.11,-92.7 207.21,-92.7 207.21,-92.7 261.8,-92.7 261.8,-92.7 264.9,-92.7 268,-95.8 268,-98.9 268,-98.9 268,-105.1 268,-105.1 268,-108.2 264.9,-111.3 261.8,-111.3"/>
<text text-anchor="middle" x="234.5" y="-99.3" font-family="Helvetica,sans-Serif" font-size="9.00">sort&#45;words.js</text>
</a>
</g>
</g>
<!-- client/src/handlers/sort&#45;words.js&#45;&gt;client/data.js -->
<g id="edge5" class="edge">
<title>client/src/handlers/sort&#45;words.js&#45;&gt;client/data.js</title>
<path fill="none" stroke="#000000" stroke-width="2" stroke-opacity="0.200000" d="M268.19,-111.14C271.15,-113.01 273.84,-115.28 276,-118 291.08,-137 273,-150.38 284,-172 289.42,-182.65 298.67,-192.16 307.09,-199.34"/>
<polygon fill="#000000" fill-opacity="0.200000" stroke="#000000" stroke-width="2" stroke-opacity="0.200000" points="306.2,-201.33 312.18,-203.5 308.86,-198.08 306.2,-201.33"/>
</g>
<!-- client/src/handlers/sort&#45;words.js&#45;&gt;client/src/components/render&#45;list.js -->
<g id="edge6" class="edge">
<title>client/src/handlers/sort&#45;words.js&#45;&gt;client/src/components/render&#45;list.js</title>
<path fill="none" stroke="#000000" stroke-width="2" stroke-opacity="0.200000" d="M249.6,-92.47C264.97,-82.08 289.63,-65.41 306.71,-53.87"/>
<polygon fill="#000000" fill-opacity="0.200000" stroke="#000000" stroke-width="2" stroke-opacity="0.200000" points="307.95,-55.56 311.75,-50.46 305.6,-52.08 307.95,-55.56"/>
</g>
<!-- client/src/handlers/sort&#45;words.js&#45;&gt;client/src/logic/sort&#45;strings.js -->
<g id="edge7" class="edge">
<title>client/src/handlers/sort&#45;words.js&#45;&gt;client/src/logic/sort&#45;strings.js</title>
<path fill="none" stroke="#000000" stroke-width="2" stroke-opacity="0.200000" d="M268.08,-102C273.79,-102 279.79,-102 285.68,-102"/>
<polygon fill="#000000" fill-opacity="0.200000" stroke="#000000" stroke-width="2" stroke-opacity="0.200000" points="286,-104.1 292,-102 286,-99.9 286,-104.1"/>
</g>
<!-- client/src/init/index.js -->
<g id="node7" class="node">
<title>client/src/init/index.js</title>
<g id="a_node7"><a xlink:href="../client/src/init/index.js" xlink:title="index.js">
<path fill="#ffffcc" stroke="black" d="M79.8,-126.3C79.8,-126.3 38.2,-126.3 38.2,-126.3 35.1,-126.3 32,-123.2 32,-120.1 32,-120.1 32,-113.9 32,-113.9 32,-110.8 35.1,-107.7 38.2,-107.7 38.2,-107.7 79.8,-107.7 79.8,-107.7 82.9,-107.7 86,-110.8 86,-113.9 86,-113.9 86,-120.1 86,-120.1 86,-123.2 82.9,-126.3 79.8,-126.3"/>
<text text-anchor="middle" x="59" y="-114.3" font-family="Helvetica,sans-Serif" font-size="9.00">index.js</text>
</a>
</g>
</g>
<!-- client/src/init/index.js&#45;&gt;client/data.js -->
<g id="edge8" class="edge">
<title>client/src/init/index.js&#45;&gt;client/data.js</title>
<path fill="none" stroke="#000000" stroke-width="2" stroke-opacity="0.200000" d="M64.46,-126.52C70.88,-139.1 83.97,-160.95 102,-172 162.13,-208.86 247.27,-214.25 293.25,-214.13"/>
<polygon fill="#000000" fill-opacity="0.200000" stroke="#000000" stroke-width="2" stroke-opacity="0.200000" points="293.49,-216.23 299.47,-214.08 293.45,-212.03 293.49,-216.23"/>
</g>
<!-- client/src/init/index.js&#45;&gt;client/src/components/render&#45;list.js -->
<g id="edge9" class="edge">
<title>client/src/init/index.js&#45;&gt;client/src/components/render&#45;list.js</title>
<path fill="none" stroke="#000000" stroke-width="2" stroke-opacity="0.200000" d="M68.69,-107.39C76.58,-99.31 88.93,-88.12 102,-82 162.97,-53.45 241.96,-44.74 287.94,-42.11"/>
<polygon fill="#000000" fill-opacity="0.200000" stroke="#000000" stroke-width="2" stroke-opacity="0.200000" points="288.32,-44.19 294.2,-41.78 288.1,-40 288.32,-44.19"/>
</g>
<!-- client/src/listeners/input&#45;word.js -->
<g id="node8" class="node">
<title>client/src/listeners/input&#45;word.js</title>
<g id="a_node8"><a xlink:href="../client/src/listeners/input-word.js" xlink:title="input&#45;word.js">
<path fill="#ffffcc" stroke="black" d="M170.8,-142.3C170.8,-142.3 116.2,-142.3 116.2,-142.3 113.1,-142.3 110,-139.2 110,-136.1 110,-136.1 110,-129.9 110,-129.9 110,-126.8 113.1,-123.7 116.2,-123.7 116.2,-123.7 170.8,-123.7 170.8,-123.7 173.9,-123.7 177,-126.8 177,-129.9 177,-129.9 177,-136.1 177,-136.1 177,-139.2 173.9,-142.3 170.8,-142.3"/>
<text text-anchor="middle" x="143.5" y="-130.3" font-family="Helvetica,sans-Serif" font-size="9.00">input&#45;word.js</text>
</a>
</g>
</g>
<!-- client/src/init/index.js&#45;&gt;client/src/listeners/input&#45;word.js -->
<g id="edge10" class="edge">
<title>client/src/init/index.js&#45;&gt;client/src/listeners/input&#45;word.js</title>
<path fill="none" stroke="#000000" stroke-width="2" stroke-opacity="0.200000" d="M86.1,-122.06C91.77,-123.16 97.88,-124.35 103.91,-125.52"/>
<polygon fill="#000000" fill-opacity="0.200000" stroke="#000000" stroke-width="2" stroke-opacity="0.200000" points="103.6,-127.6 109.89,-126.68 104.4,-123.47 103.6,-127.6"/>
</g>
<!-- client/src/listeners/sort&#45;words.js -->
<g id="node9" class="node">
<title>client/src/listeners/sort&#45;words.js</title>
<g id="a_node9"><a xlink:href="../client/src/listeners/sort-words.js" xlink:title="sort&#45;words.js">
<path fill="#ffffcc" stroke="black" d="M170.79,-111.3C170.79,-111.3 116.21,-111.3 116.21,-111.3 113.11,-111.3 110.01,-108.2 110.01,-105.1 110.01,-105.1 110.01,-98.9 110.01,-98.9 110.01,-95.8 113.11,-92.7 116.21,-92.7 116.21,-92.7 170.79,-92.7 170.79,-92.7 173.89,-92.7 176.99,-95.8 176.99,-98.9 176.99,-98.9 176.99,-105.1 176.99,-105.1 176.99,-108.2 173.89,-111.3 170.79,-111.3"/>
<text text-anchor="middle" x="143.5" y="-99.3" font-family="Helvetica,sans-Serif" font-size="9.00">sort&#45;words.js</text>
</a>
</g>
</g>
<!-- client/src/init/index.js&#45;&gt;client/src/listeners/sort&#45;words.js -->
<g id="edge11" class="edge">
<title>client/src/init/index.js&#45;&gt;client/src/listeners/sort&#45;words.js</title>
<path fill="none" stroke="#000000" stroke-width="2" stroke-opacity="0.200000" d="M86.1,-112.25C91.77,-111.22 97.88,-110.11 103.91,-109.02"/>
<polygon fill="#000000" fill-opacity="0.200000" stroke="#000000" stroke-width="2" stroke-opacity="0.200000" points="104.37,-111.07 109.89,-107.93 103.62,-106.94 104.37,-111.07"/>
</g>
<!-- client/src/listeners/input&#45;word.js&#45;&gt;client/src/handlers/input&#45;word.js -->
<g id="edge12" class="edge">
<title>client/src/listeners/input&#45;word.js&#45;&gt;client/src/handlers/input&#45;word.js</title>
<path fill="none" stroke="#000000" stroke-width="2" stroke-opacity="0.200000" d="M177.14,-133C182.82,-133 188.78,-133 194.61,-133"/>
<polygon fill="#000000" fill-opacity="0.200000" stroke="#000000" stroke-width="2" stroke-opacity="0.200000" points="194.87,-135.1 200.87,-133 194.87,-130.9 194.87,-135.1"/>
</g>
<!-- client/src/listeners/sort&#45;words.js&#45;&gt;client/src/handlers/sort&#45;words.js -->
<g id="edge13" class="edge">
<title>client/src/listeners/sort&#45;words.js&#45;&gt;client/src/handlers/sort&#45;words.js</title>
<path fill="none" stroke="#000000" stroke-width="2" stroke-opacity="0.200000" d="M177.14,-102C182.82,-102 188.78,-102 194.61,-102"/>
<polygon fill="#000000" fill-opacity="0.200000" stroke="#000000" stroke-width="2" stroke-opacity="0.200000" points="194.87,-104.1 200.87,-102 194.87,-99.9 194.87,-104.1"/>
</g>
</g>
</svg>
