<?xml version="1.0" encoding="UTF-8" standalone="no"?>
<!DOCTYPE svg PUBLIC "-//W3C//DTD SVG 1.1//EN"
 "http://www.w3.org/Graphics/SVG/1.1/DTD/svg11.dtd">
<!-- Generated by graphviz version 2.44.0 (20200408.0750)
 -->
<!-- Title: dependency&#45;cruiser output Pages: 1 -->
<svg width="400pt" height="255pt"
 viewBox="0.00 0.00 400.00 255.00" xmlns="http://www.w3.org/2000/svg" xmlns:xlink="http://www.w3.org/1999/xlink">
<g id="graph0" class="graph" transform="scale(1 1) rotate(0) translate(4 251)">
<title>dependency&#45;cruiser output</title>
<polygon fill="white" stroke="transparent" points="-4,4 -4,-251 396,-251 396,4 -4,4"/>
<g id="clust1" class="cluster">
<title>cluster_src</title>
<path fill="#ffffff" stroke="black" stroke-width="2" d="M20,-8C20,-8 372,-8 372,-8 378,-8 384,-14 384,-20 384,-20 384,-227 384,-227 384,-233 378,-239 372,-239 372,-239 20,-239 20,-239 14,-239 8,-233 8,-227 8,-227 8,-20 8,-20 8,-14 14,-8 20,-8"/>
<text text-anchor="middle" x="196" y="-226.9" font-family="Helvetica,sans-Serif" font-weight="bold" font-size="9.00">src</text>
</g>
<g id="clust2" class="cluster">
<title>cluster_src/handlers</title>
<path fill="#ffffff" stroke="black" stroke-width="2" d="M209,-118C209,-118 268,-118 268,-118 274,-118 280,-124 280,-130 280,-130 280,-190 280,-190 280,-196 274,-202 268,-202 268,-202 209,-202 209,-202 203,-202 197,-196 197,-190 197,-190 197,-130 197,-130 197,-124 203,-118 209,-118"/>
<text text-anchor="middle" x="238.5" y="-189.9" font-family="Helvetica,sans-Serif" font-weight="bold" font-size="9.00">handlers</text>
</g>
<g id="clust3" class="cluster">
<title>cluster_src/init</title>
<path fill="#ffffff" stroke="black" stroke-width="2" d="M28,-133C28,-133 74,-133 74,-133 80,-133 86,-139 86,-145 86,-145 86,-174 86,-174 86,-180 80,-186 74,-186 74,-186 28,-186 28,-186 22,-186 16,-180 16,-174 16,-174 16,-145 16,-145 16,-139 22,-133 28,-133"/>
<text text-anchor="middle" x="51" y="-173.9" font-family="Helvetica,sans-Serif" font-weight="bold" font-size="9.00">init</text>
</g>
<g id="clust4" class="cluster">
<title>cluster_src/listeners</title>
<path fill="#ffffff" stroke="black" stroke-width="2" d="M106,-118C106,-118 165,-118 165,-118 171,-118 177,-124 177,-130 177,-130 177,-190 177,-190 177,-196 171,-202 165,-202 165,-202 106,-202 106,-202 100,-202 94,-196 94,-190 94,-190 94,-130 94,-130 94,-124 100,-118 106,-118"/>
<text text-anchor="middle" x="135.5" y="-189.9" font-family="Helvetica,sans-Serif" font-weight="bold" font-size="9.00">listeners</text>
</g>
<g id="clust5" class="cluster">
<title>cluster_src/logic</title>
<path fill="#ffffff" stroke="black" stroke-width="2" d="M197,-16C197,-16 364,-16 364,-16 370,-16 376,-22 376,-28 376,-28 376,-88 376,-88 376,-94 370,-100 364,-100 364,-100 197,-100 197,-100 191,-100 185,-94 185,-88 185,-88 185,-28 185,-28 185,-22 191,-16 197,-16"/>
<text text-anchor="middle" x="280.5" y="-87.9" font-family="Helvetica,sans-Serif" font-weight="bold" font-size="9.00">logic</text>
</g>
<g id="clust6" class="cluster">
<title>cluster_src/procedures</title>
<path fill="#ffffff" stroke="black" stroke-width="2" d="M304,-150C304,-150 362.51,-150 362.51,-150 368.51,-150 374.51,-156 374.51,-162 374.51,-162 374.51,-191 374.51,-191 374.51,-197 368.51,-203 362.51,-203 362.51,-203 304,-203 304,-203 298,-203 292,-197 292,-191 292,-191 292,-162 292,-162 292,-156 298,-150 304,-150"/>
<text text-anchor="middle" x="333.26" y="-190.9" font-family="Helvetica,sans-Serif" font-weight="bold" font-size="9.00">procedures</text>
</g>
<!-- src/data.js -->
<g id="node1" class="node">
<title>src/data.js</title>
<g id="a_node1"><a xlink:href="src/data.js" xlink:title="data.js">
<path fill="#ffffcc" stroke="black" d="M354.06,-142.3C354.06,-142.3 312.46,-142.3 312.46,-142.3 309.36,-142.3 306.26,-139.2 306.26,-136.1 306.26,-136.1 306.26,-129.9 306.26,-129.9 306.26,-126.8 309.36,-123.7 312.46,-123.7 312.46,-123.7 354.06,-123.7 354.06,-123.7 357.16,-123.7 360.26,-126.8 360.26,-129.9 360.26,-129.9 360.26,-136.1 360.26,-136.1 360.26,-139.2 357.16,-142.3 354.06,-142.3"/>
<text text-anchor="middle" x="333.26" y="-130.3" font-family="Helvetica,sans-Serif" font-size="9.00">data.js</text>
</a>
</g>
</g>
<!-- src/handlers/input&#45;word.js -->
<g id="node2" class="node">
<title>src/handlers/input&#45;word.js</title>
<g id="a_node2"><a xlink:href="src/handlers/input-word.js" xlink:title="input&#45;word.js">
<path fill="#ffffcc" stroke="black" d="M265.8,-144.3C265.8,-144.3 211.2,-144.3 211.2,-144.3 208.1,-144.3 205,-141.2 205,-138.1 205,-138.1 205,-131.9 205,-131.9 205,-128.8 208.1,-125.7 211.2,-125.7 211.2,-125.7 265.8,-125.7 265.8,-125.7 268.9,-125.7 272,-128.8 272,-131.9 272,-131.9 272,-138.1 272,-138.1 272,-141.2 268.9,-144.3 265.8,-144.3"/>
<text text-anchor="middle" x="238.5" y="-132.3" font-family="Helvetica,sans-Serif" font-size="9.00">input&#45;word.js</text>
</a>
</g>
</g>
<!-- src/handlers/input&#45;word.js&#45;&gt;src/data.js -->
<g id="edge1" class="edge">
<title>src/handlers/input&#45;word.js&#45;&gt;src/data.js</title>
<path fill="none" stroke="#000000" stroke-width="2" stroke-opacity="0.200000" d="M272.2,-134.29C281.27,-134.1 291.11,-133.89 300.14,-133.69"/>
<polygon fill="#000000" fill-opacity="0.200000" stroke="#000000" stroke-width="2" stroke-opacity="0.200000" points="300.3,-135.79 306.25,-133.56 300.21,-131.59 300.3,-135.79"/>
</g>
<!-- src/logic/is&#45;word.js -->
<g id="node3" class="node">
<title>src/logic/is&#45;word.js</title>
<g id="a_node3"><a xlink:href="src/logic/is-word.js" xlink:title="is&#45;word.js">
<path fill="#ffffcc" stroke="black" d="M354.06,-42.3C354.06,-42.3 312.46,-42.3 312.46,-42.3 309.36,-42.3 306.26,-39.2 306.26,-36.1 306.26,-36.1 306.26,-29.9 306.26,-29.9 306.26,-26.8 309.36,-23.7 312.46,-23.7 312.46,-23.7 354.06,-23.7 354.06,-23.7 357.16,-23.7 360.26,-26.8 360.26,-29.9 360.26,-29.9 360.26,-36.1 360.26,-36.1 360.26,-39.2 357.16,-42.3 354.06,-42.3"/>
<text text-anchor="middle" x="333.26" y="-30.3" font-family="Helvetica,sans-Serif" font-size="9.00">is&#45;word.js</text>
</a>
</g>
</g>
<!-- src/handlers/input&#45;word.js&#45;&gt;src/logic/is&#45;word.js -->
<g id="edge2" class="edge">
<title>src/handlers/input&#45;word.js&#45;&gt;src/logic/is&#45;word.js</title>
<path fill="none" stroke="#000000" stroke-width="2" stroke-opacity="0.200000" d="M259.26,-125.49C268.25,-120.14 278.16,-112.59 284,-103 296.63,-82.28 276.94,-68.02 292,-49 294.39,-45.98 297.44,-43.53 300.78,-41.54"/>
<polygon fill="#000000" fill-opacity="0.200000" stroke="#000000" stroke-width="2" stroke-opacity="0.200000" points="301.82,-43.37 306.22,-38.78 299.92,-39.62 301.82,-43.37"/>
</g>
<!-- src/logic/sort&#45;strings.js -->
<g id="node4" class="node">
<title>src/logic/sort&#45;strings.js</title>
<g id="a_node4"><a xlink:href="src/logic/sort-strings.js" xlink:title="sort&#45;strings.js">
<path fill="#ffffcc" stroke="black" d="M362.05,-73.3C362.05,-73.3 304.46,-73.3 304.46,-73.3 301.36,-73.3 298.26,-70.2 298.26,-67.1 298.26,-67.1 298.26,-60.9 298.26,-60.9 298.26,-57.8 301.36,-54.7 304.46,-54.7 304.46,-54.7 362.05,-54.7 362.05,-54.7 365.15,-54.7 368.25,-57.8 368.25,-60.9 368.25,-60.9 368.25,-67.1 368.25,-67.1 368.25,-70.2 365.15,-73.3 362.05,-73.3"/>
<text text-anchor="middle" x="333.26" y="-61.3" font-family="Helvetica,sans-Serif" font-size="9.00">sort&#45;strings.js</text>
</a>
</g>
</g>
<!-- src/handlers/input&#45;word.js&#45;&gt;src/logic/sort&#45;strings.js -->
<g id="edge3" class="edge">
<title>src/handlers/input&#45;word.js&#45;&gt;src/logic/sort&#45;strings.js</title>
<path fill="none" stroke="#000000" stroke-width="2" stroke-opacity="0.200000" d="M257.75,-125.63C266.81,-120.14 277.23,-112.43 284,-103 291.06,-93.18 283.51,-85.61 292,-77 292.35,-76.65 292.71,-76.3 293.08,-75.97"/>
<polygon fill="#000000" fill-opacity="0.200000" stroke="#000000" stroke-width="2" stroke-opacity="0.200000" points="294.7,-77.38 298.28,-72.13 292.21,-74 294.7,-77.38"/>
</g>
<!-- src/procedures/update&#45;list.js -->
<g id="node5" class="node">
<title>src/procedures/update&#45;list.js</title>
<g id="a_node5"><a xlink:href="src/procedures/update-list.js" xlink:title="update&#45;list.js">
<path fill="#ffffcc" stroke="black" d="M360.06,-176.3C360.06,-176.3 306.45,-176.3 306.45,-176.3 303.35,-176.3 300.25,-173.2 300.25,-170.1 300.25,-170.1 300.25,-163.9 300.25,-163.9 300.25,-160.8 303.35,-157.7 306.45,-157.7 306.45,-157.7 360.06,-157.7 360.06,-157.7 363.16,-157.7 366.26,-160.8 366.26,-163.9 366.26,-163.9 366.26,-170.1 366.26,-170.1 366.26,-173.2 363.16,-176.3 360.06,-176.3"/>
<text text-anchor="middle" x="333.26" y="-164.3" font-family="Helvetica,sans-Serif" font-size="9.00">update&#45;list.js</text>
</a>
</g>
</g>
<!-- src/handlers/input&#45;word.js&#45;&gt;src/procedures/update&#45;list.js -->
<g id="edge4" class="edge">
<title>src/handlers/input&#45;word.js&#45;&gt;src/procedures/update&#45;list.js</title>
<path fill="none" stroke="#000000" stroke-width="2" stroke-opacity="0.200000" d="M265.88,-144.42C271.84,-146.56 278.15,-148.85 284,-151 287.57,-152.31 288.42,-152.75 292,-154 293.63,-154.57 295.29,-155.14 296.98,-155.71"/>
<polygon fill="#000000" fill-opacity="0.200000" stroke="#000000" stroke-width="2" stroke-opacity="0.200000" points="296.39,-157.73 302.75,-157.64 297.72,-153.75 296.39,-157.73"/>
</g>
<!-- src/handlers/sort&#45;words.js -->
<g id="node6" class="node">
<title>src/handlers/sort&#45;words.js</title>
<g id="a_node6"><a xlink:href="src/handlers/sort-words.js" xlink:title="sort&#45;words.js">
<path fill="#ffffcc" stroke="black" d="M265.8,-175.3C265.8,-175.3 211.21,-175.3 211.21,-175.3 208.11,-175.3 205.01,-172.2 205.01,-169.1 205.01,-169.1 205.01,-162.9 205.01,-162.9 205.01,-159.8 208.11,-156.7 211.21,-156.7 211.21,-156.7 265.8,-156.7 265.8,-156.7 268.9,-156.7 272,-159.8 272,-162.9 272,-162.9 272,-169.1 272,-169.1 272,-172.2 268.9,-175.3 265.8,-175.3"/>
<text text-anchor="middle" x="238.5" y="-163.3" font-family="Helvetica,sans-Serif" font-size="9.00">sort&#45;words.js</text>
</a>
</g>
</g>
<!-- src/handlers/sort&#45;words.js&#45;&gt;src/data.js -->
<g id="edge5" class="edge">
<title>src/handlers/sort&#45;words.js&#45;&gt;src/data.js</title>
<path fill="none" stroke="#000000" stroke-width="2" stroke-opacity="0.200000" d="M265.88,-156.58C271.84,-154.44 278.15,-152.15 284,-150 287.57,-148.69 288.43,-148.29 292,-147 294.73,-146.01 297.57,-145 300.41,-144"/>
<polygon fill="#000000" fill-opacity="0.200000" stroke="#000000" stroke-width="2" stroke-opacity="0.200000" points="301.28,-145.92 306.24,-141.95 299.88,-141.96 301.28,-145.92"/>
</g>
<!-- src/handlers/sort&#45;words.js&#45;&gt;src/logic/sort&#45;strings.js -->
<g id="edge6" class="edge">
<title>src/handlers/sort&#45;words.js&#45;&gt;src/logic/sort&#45;strings.js</title>
<path fill="none" stroke="#000000" stroke-width="2" stroke-opacity="0.200000" d="M272.01,-159.25C276.62,-157 280.85,-154 284,-150 304.21,-124.36 271.38,-102.3 292,-77 292.44,-76.46 292.91,-75.94 293.39,-75.44"/>
<polygon fill="#000000" fill-opacity="0.200000" stroke="#000000" stroke-width="2" stroke-opacity="0.200000" points="294.9,-76.93 298.24,-71.52 292.25,-73.66 294.9,-76.93"/>
</g>
<!-- src/handlers/sort&#45;words.js&#45;&gt;src/procedures/update&#45;list.js -->
<g id="edge7" class="edge">
<title>src/handlers/sort&#45;words.js&#45;&gt;src/procedures/update&#45;list.js</title>
<path fill="none" stroke="#000000" stroke-width="2" stroke-opacity="0.200000" d="M272.2,-166.35C279.29,-166.43 286.85,-166.51 294.13,-166.59"/>
<polygon fill="#000000" fill-opacity="0.200000" stroke="#000000" stroke-width="2" stroke-opacity="0.200000" points="294.14,-168.69 300.16,-166.65 294.19,-164.49 294.14,-168.69"/>
</g>
<!-- src/init/index.js -->
<g id="node7" class="node">
<title>src/init/index.js</title>
<g id="a_node7"><a xlink:href="src/init/index.js" xlink:title="index.js">
<path fill="#ffffcc" stroke="black" d="M71.8,-159.3C71.8,-159.3 30.2,-159.3 30.2,-159.3 27.1,-159.3 24,-156.2 24,-153.1 24,-153.1 24,-146.9 24,-146.9 24,-143.8 27.1,-140.7 30.2,-140.7 30.2,-140.7 71.8,-140.7 71.8,-140.7 74.9,-140.7 78,-143.8 78,-146.9 78,-146.9 78,-153.1 78,-153.1 78,-156.2 74.9,-159.3 71.8,-159.3"/>
<text text-anchor="middle" x="51" y="-147.3" font-family="Helvetica,sans-Serif" font-size="9.00">index.js</text>
</a>
</g>
</g>
<!-- src/init/index.js&#45;&gt;src/data.js -->
<g id="edge8" class="edge">
<title>src/init/index.js&#45;&gt;src/data.js</title>
<path fill="none" stroke="#000000" stroke-width="2" stroke-opacity="0.200000" d="M59.85,-140.46C67.53,-131.93 80.08,-120.04 94,-115 133.7,-100.63 242.45,-107.5 284,-115 291.43,-116.34 299.2,-118.75 306.28,-121.38"/>
<polygon fill="#000000" fill-opacity="0.200000" stroke="#000000" stroke-width="2" stroke-opacity="0.200000" points="305.7,-123.41 312.05,-123.63 307.22,-119.49 305.7,-123.41"/>
</g>
<!-- src/init/index.js&#45;&gt;src/procedures/update&#45;list.js -->
<g id="edge11" class="edge">
<title>src/init/index.js&#45;&gt;src/procedures/update&#45;list.js</title>
<path fill="none" stroke="#000000" stroke-width="2" stroke-opacity="0.200000" d="M55.98,-159.57C62.01,-172.63 74.83,-195.52 94,-205 169.69,-242.44 204.21,-232.65 284,-205 297.78,-200.23 310.6,-189.72 319.56,-180.96"/>
<polygon fill="#000000" fill-opacity="0.200000" stroke="#000000" stroke-width="2" stroke-opacity="0.200000" points="321.41,-182.07 324.12,-176.32 318.41,-179.13 321.41,-182.07"/>
</g>
<!-- src/listeners/input&#45;word.js -->
<g id="node8" class="node">
<title>src/listeners/input&#45;word.js</title>
<g id="a_node8"><a xlink:href="src/listeners/input-word.js" xlink:title="input&#45;word.js">
<path fill="#ffffcc" stroke="black" d="M162.8,-144.3C162.8,-144.3 108.2,-144.3 108.2,-144.3 105.1,-144.3 102,-141.2 102,-138.1 102,-138.1 102,-131.9 102,-131.9 102,-128.8 105.1,-125.7 108.2,-125.7 108.2,-125.7 162.8,-125.7 162.8,-125.7 165.9,-125.7 169,-128.8 169,-131.9 169,-131.9 169,-138.1 169,-138.1 169,-141.2 165.9,-144.3 162.8,-144.3"/>
<text text-anchor="middle" x="135.5" y="-132.3" font-family="Helvetica,sans-Serif" font-size="9.00">input&#45;word.js</text>
</a>
</g>
</g>
<!-- src/init/index.js&#45;&gt;src/listeners/input&#45;word.js -->
<g id="edge9" class="edge">
<title>src/init/index.js&#45;&gt;src/listeners/input&#45;word.js</title>
<path fill="none" stroke="#000000" stroke-width="2" stroke-opacity="0.200000" d="M78.1,-145.25C83.77,-144.22 89.88,-143.11 95.91,-142.02"/>
<polygon fill="#000000" fill-opacity="0.200000" stroke="#000000" stroke-width="2" stroke-opacity="0.200000" points="96.37,-144.07 101.89,-140.93 95.62,-139.94 96.37,-144.07"/>
</g>
<!-- src/listeners/sort&#45;words.js -->
<g id="node9" class="node">
<title>src/listeners/sort&#45;words.js</title>
<g id="a_node9"><a xlink:href="src/listeners/sort-words.js" xlink:title="sort&#45;words.js">
<path fill="#ffffcc" stroke="black" d="M162.79,-175.3C162.79,-175.3 108.21,-175.3 108.21,-175.3 105.11,-175.3 102.01,-172.2 102.01,-169.1 102.01,-169.1 102.01,-162.9 102.01,-162.9 102.01,-159.8 105.11,-156.7 108.21,-156.7 108.21,-156.7 162.79,-156.7 162.79,-156.7 165.89,-156.7 168.99,-159.8 168.99,-162.9 168.99,-162.9 168.99,-169.1 168.99,-169.1 168.99,-172.2 165.89,-175.3 162.79,-175.3"/>
<text text-anchor="middle" x="135.5" y="-163.3" font-family="Helvetica,sans-Serif" font-size="9.00">sort&#45;words.js</text>
</a>
</g>
</g>
<!-- src/init/index.js&#45;&gt;src/listeners/sort&#45;words.js -->
<g id="edge10" class="edge">
<title>src/init/index.js&#45;&gt;src/listeners/sort&#45;words.js</title>
<path fill="none" stroke="#000000" stroke-width="2" stroke-opacity="0.200000" d="M78.1,-155.06C83.77,-156.16 89.88,-157.35 95.91,-158.52"/>
<polygon fill="#000000" fill-opacity="0.200000" stroke="#000000" stroke-width="2" stroke-opacity="0.200000" points="95.6,-160.6 101.89,-159.68 96.4,-156.47 95.6,-160.6"/>
</g>
<!-- src/listeners/input&#45;word.js&#45;&gt;src/handlers/input&#45;word.js -->
<g id="edge12" class="edge">
<title>src/listeners/input&#45;word.js&#45;&gt;src/handlers/input&#45;word.js</title>
<path fill="none" stroke="#000000" stroke-width="2" stroke-opacity="0.200000" d="M169.01,-135C178.47,-135 188.89,-135 198.7,-135"/>
<polygon fill="#000000" fill-opacity="0.200000" stroke="#000000" stroke-width="2" stroke-opacity="0.200000" points="198.7,-137.1 204.7,-135 198.7,-132.9 198.7,-137.1"/>
</g>
<!-- src/listeners/sort&#45;words.js&#45;&gt;src/handlers/sort&#45;words.js -->
<g id="edge13" class="edge">
<title>src/listeners/sort&#45;words.js&#45;&gt;src/handlers/sort&#45;words.js</title>
<path fill="none" stroke="#000000" stroke-width="2" stroke-opacity="0.200000" d="M169.01,-166C178.47,-166 188.89,-166 198.7,-166"/>
<polygon fill="#000000" fill-opacity="0.200000" stroke="#000000" stroke-width="2" stroke-opacity="0.200000" points="198.7,-168.1 204.7,-166 198.7,-163.9 198.7,-168.1"/>
</g>
<!-- src/logic/is&#45;word.spec.js -->
<g id="node10" class="node">
<title>src/logic/is&#45;word.spec.js</title>
<g id="a_node10"><a xlink:href="src/logic/is-word.spec.js" xlink:title="is&#45;word.spec.js">
<path fill="#ffffcc" stroke="black" d="M270.3,-42.3C270.3,-42.3 206.7,-42.3 206.7,-42.3 203.6,-42.3 200.5,-39.2 200.5,-36.1 200.5,-36.1 200.5,-29.9 200.5,-29.9 200.5,-26.8 203.6,-23.7 206.7,-23.7 206.7,-23.7 270.3,-23.7 270.3,-23.7 273.4,-23.7 276.5,-26.8 276.5,-29.9 276.5,-29.9 276.5,-36.1 276.5,-36.1 276.5,-39.2 273.4,-42.3 270.3,-42.3"/>
<text text-anchor="middle" x="238.5" y="-30.3" font-family="Helvetica,sans-Serif" font-size="9.00">is&#45;word.spec.js</text>
</a>
</g>
</g>
<!-- src/logic/is&#45;word.spec.js&#45;&gt;src/logic/is&#45;word.js -->
<g id="edge14" class="edge">
<title>src/logic/is&#45;word.spec.js&#45;&gt;src/logic/is&#45;word.js</title>
<path fill="none" stroke="#000000" stroke-width="2" stroke-opacity="0.200000" d="M276.43,-33C284.16,-33 292.27,-33 299.82,-33"/>
<polygon fill="#000000" fill-opacity="0.200000" stroke="#000000" stroke-width="2" stroke-opacity="0.200000" points="300.02,-35.1 306.02,-33 300.02,-30.9 300.02,-35.1"/>
</g>
<!-- src/logic/sort&#45;strings.spec.js -->
<g id="node11" class="node">
<title>src/logic/sort&#45;strings.spec.js</title>
<g id="a_node11"><a xlink:href="src/logic/sort-strings.spec.js" xlink:title="sort&#45;strings.spec.js">
<path fill="#ffffcc" stroke="black" d="M277.8,-73.3C277.8,-73.3 199.2,-73.3 199.2,-73.3 196.1,-73.3 193,-70.2 193,-67.1 193,-67.1 193,-60.9 193,-60.9 193,-57.8 196.1,-54.7 199.2,-54.7 199.2,-54.7 277.8,-54.7 277.8,-54.7 280.9,-54.7 284,-57.8 284,-60.9 284,-60.9 284,-67.1 284,-67.1 284,-70.2 280.9,-73.3 277.8,-73.3"/>
<text text-anchor="middle" x="238.5" y="-61.3" font-family="Helvetica,sans-Serif" font-size="9.00">sort&#45;strings.spec.js</text>
</a>
</g>
</g>
<!-- src/logic/sort&#45;strings.spec.js&#45;&gt;src/logic/sort&#45;strings.js -->
<g id="edge15" class="edge">
<title>src/logic/sort&#45;strings.spec.js&#45;&gt;src/logic/sort&#45;strings.js</title>
<path fill="none" stroke="#000000" stroke-width="2" stroke-opacity="0.200000" d="M284.25,-64C286.91,-64 289.57,-64 292.21,-64"/>
<polygon fill="#000000" fill-opacity="0.200000" stroke="#000000" stroke-width="2" stroke-opacity="0.200000" points="292.3,-66.1 298.3,-64 292.3,-61.9 292.3,-66.1"/>
</g>
</g>
</svg>
